HIERARCHY
ROOT Hips
{
	OFFSET -0.001795 -0.223333 0.028219
	CHANNELS 6 Xposition Yposition Zposition Zrotation Yrotation Xrotation 
	JOINT LeftUpLeg
	{
		OFFSET 0.069520 -0.091406 -0.006815
		CHANNELS 3 Zrotation Yrotation Xrotation
		JOINT LeftLeg
		{
			OFFSET 0.034277 -0.375199 -0.004496
			CHANNELS 3 Zrotation Yrotation Xrotation
			JOINT LeftFoot
			{
				OFFSET -0.013596 -0.397961 -0.043693
				CHANNELS 3 Zrotation Yrotation Xrotation
				JOINT LeftToe
				{
					OFFSET 0.026358 -0.055791 0.119288
					CHANNELS 3 Zrotation Yrotation Xrotation
					End Site
					{
						OFFSET 0.000000 0.000000 0.000000
					}
				}
			}
		}
	}
	JOINT RightUpLeg
	{
		OFFSET -0.067670 -0.090522 -0.004320
		CHANNELS 3 Zrotation Yrotation Xrotation
		JOINT RightLeg
		{
			OFFSET -0.038290 -0.382569 -0.008850
			CHANNELS 3 Zrotation Yrotation Xrotation
			JOINT RightFoot
			{
				OFFSET 0.015774 -0.398415 -0.042312
				CHANNELS 3 Zrotation Yrotation Xrotation
				JOINT RightToe
				{
					OFFSET -0.025372 -0.048144 0.123348
					CHANNELS 3 Zrotation Yrotation Xrotation
					End Site
					{
						OFFSET 0.000000 0.000000 0.000000
					}
				}
			}
		}
	}
	JOINT Spine
	{
		OFFSET -0.002533 0.108963 -0.026696
		CHANNELS 3 Zrotation Yrotation Xrotation
		JOINT Spine1
		{
			OFFSET 0.005487 0.135180 0.001092
			CHANNELS 3 Zrotation Yrotation Xrotation
			JOINT Spine2
			{
				OFFSET 0.001457 0.052922 0.025425
				CHANNELS 3 Zrotation Yrotation Xrotation
				JOINT Neck
				{
					OFFSET -0.002778 0.213870 -0.042857
					CHANNELS 3 Zrotation Yrotation Xrotation
					JOINT Head
					{
						OFFSET 0.005152 0.064970 0.051349
						CHANNELS 3 Zrotation Yrotation Xrotation
						End Site
						{
							OFFSET 0.000000 0.000000 0.000000
						}
					}
				}
				JOINT LeftShoulder
				{
					OFFSET 0.078845 0.121749 -0.034090
					CHANNELS 3 Zrotation Yrotation Xrotation
					JOINT LeftArm
					{
						OFFSET 0.090977 0.030469 -0.008868
						CHANNELS 3 Zrotation Yrotation Xrotation
						JOINT LeftForeArm
						{
							OFFSET 0.259612 -0.012772 -0.027456
							CHANNELS 3 Zrotation Yrotation Xrotation
							JOINT LeftHand
							{
								OFFSET 0.249234 0.008986 -0.001171
								CHANNELS 3 Zrotation Yrotation Xrotation
								End Site
								{
									OFFSET 0.000000 0.000000 0.000000
								}
							}
						}
					}
				}
				JOINT RightShoulder
				{
					OFFSET -0.081759 0.118833 -0.038615
					CHANNELS 3 Zrotation Yrotation Xrotation
					JOINT RightArm
					{
						OFFSET -0.096012 0.032551 -0.009143
						CHANNELS 3 Zrotation Yrotation Xrotation
						JOINT RightForeArm
						{
							OFFSET -0.253742 -0.013329 -0.021401
							CHANNELS 3 Zrotation Yrotation Xrotation
							JOINT RightHand
							{
								OFFSET -0.255298 0.007772 -0.005559
								CHANNELS 3 Zrotation Yrotation Xrotation
								End Site
								{
									OFFSET 0.000000 0.000000 0.000000
								}
							}
						}
					}
				}
			}
		}
	}
}
MOTION
Frames: 7
Frame Time: 0.050000
0.000000 0.940977 0.000000 -2.833998 -15.259200 -0.817042 2.111298 -0.112588 -2.129736 -3.745981 0.615421 4.407384 9.022180 18.804990 4.651033 0.000000 0.000000 0.000000 -4.572543 0.613426 -6.414360 -1.428320 1.920577 20.416334 13.743045 21.580547 11.596974 0.000000 0.000000 0.000000 3.506007 -0.434002 6.633431 -3.592278 1.659512 -1.328451 -1.620411 -1.417281 9.630677 6.211348 -3.682857 -16.433865 0.000000 0.000000 0.000000 -20.841814 -6.950470 4.705559 -43.501340 -11.211241 -2.458716 5.761710 -28.368237 0.230722 0.000000 0.000000 0.000000 21.712569 -1.669835 -5.575723 56.373263 -9.934595 -10.178194 3.292202 32.555933 1.264605 0.000000 0.000000 0.000000 
-0.016978 0.941476 -0.009620 -1.957357 -13.633080 -0.291704 3.726864 -0.153091 -3.719560 -5.793300 0.990889 4.797636 8.148396 17.028033 5.411318 0.000000 0.000000 0.000000 -4.172932 0.592741 -6.232143 -4.497430 2.233446 17.061073 19.416225 30.279080 14.934367 0.000000 0.000000 0.000000 2.308019 -0.399974 7.192241 -2.098482 0.944427 -1.706445 -2.843045 0.344767 9.084277 7.529401 -3.864784 -18.713016 0.000000 0.000000 0.000000 -20.782461 -6.720512 3.751872 -43.936757 -10.731459 -2.387275 7.409605 -28.213703 -0.285014 0.000000 0.000000 0.000000 21.609129 -3.487647 -5.709526 57.004716 -8.710166 -9.864224 2.678653 32.361953 1.359212 0.000000 0.000000 0.000000 
-0.035766 0.939892 -0.021397 -0.742589 -9.146714 -0.718579 3.813240 -0.293103 -5.716562 -5.494916 0.908232 6.849560 6.212019 13.471837 5.145102 0.000000 0.000000 0.000000 -3.719806 0.303478 -2.424897 -4.403628 1.367930 10.475870 17.439971 28.135280 13.312784 0.000000 0.000000 0.000000 2.970007 -0.501810 8.028079 -2.624082 1.231175 -1.118881 -3.449343 0.073563 8.046612 7.150098 -3.388987 -18.530726 0.000000 0.000000 0.000000 -21.477541 -7.614170 3.589378 -44.212293 -10.801024 -2.121844 7.994599 -27.878811 -0.563334 0.000000 0.000000 0.000000 21.385968 -4.131957 -5.395361 58.366712 -7.702393 -9.664696 2.174433 32.592474 1.430662 0.000000 0.000000 0.000000 
-0.055286 0.938863 -0.035090 -0.400205 -6.793906 -1.074307 4.983545 -0.251661 -5.927677 -5.623630 0.853775 6.013294 5.001112 11.362550 5.789145 0.000000 0.000000 0.000000 -2.840539 0.226818 -1.818334 -4.042874 1.164503 9.180522 16.919929 28.077236 12.552555 0.000000 0.000000 0.000000 3.804256 -0.627708 8.956490 -2.422078 1.172144 0.168202 -4.892442 2.007898 7.364506 7.810259 -3.425356 -18.150071 0.000000 0.000000 0.000000 -21.005759 -8.328834 2.881581 -44.665647 -9.161414 -2.339654 7.901884 -29.755336 -0.821372 0.000000 0.000000 0.000000 22.442443 -3.703766 -4.358401 57.788812 -5.290318 -8.429188 -0.390588 34.075874 1.110472 0.000000 0.000000 0.000000 
-0.073794 0.940158 -0.048877 -0.260613 -3.898995 -0.992774 5.543009 -0.310576 -7.274400 -4.549794 0.604517 6.027604 3.501218 9.017223 7.179174 0.000000 0.000000 0.000000 -1.535966 0.228219 -2.192157 -3.795669 1.077461 8.838078 15.844202 26.151435 12.449931 0.000000 0.000000 0.000000 5.078530 -0.849882 10.182879 -3.284659 1.595415 0.427971 -4.701828 2.495680 6.897757 7.145349 -2.918518 -17.370107 0.000000 0.000000 0.000000 -23.810322 -7.910382 1.921784 -43.254116 -7.248170 -2.700458 8.560229 -31.647243 -1.225293 0.000000 0.000000 0.000000 21.606253 -2.283033 -2.872047 57.684561 -3.394366 -7.547670 0.506956 32.011094 1.440038 0.000000 0.000000 0.000000 
-0.089378 0.942575 -0.059898 -0.107931 0.720108 -0.586699 6.018100 -0.393235 -8.265806 -3.992178 0.434015 4.392866 1.001599 5.459839 9.001254 0.000000 0.000000 0.000000 -0.694593 0.218124 -2.164929 -2.875477 0.828070 7.991585 13.535218 22.438022 11.756680 0.000000 0.000000 0.000000 5.518157 -0.873891 9.354749 -2.542221 1.216657 2.171952 -5.108656 4.325923 6.660563 7.871423 -2.802433 -17.901079 0.000000 0.000000 0.000000 -24.253827 -9.957598 1.622779 -44.208988 -5.943385 -2.724243 7.619919 -31.320788 -1.282463 0.000000 0.000000 0.000000 22.559741 -3.004643 -2.164062 56.026962 -1.502214 -6.631683 0.090990 31.001779 1.610063 0.000000 0.000000 0.000000 
-0.101849 0.944043 -0.067693 0.359624 5.494417 -1.587429 5.909767 -0.412122 -7.348481 -3.711272 0.351424 2.362858 1.435539 7.102104 10.416276 0.000000 0.000000 0.000000 0.354362 0.033123 -0.354887 -3.384492 0.837411 6.926947 11.055235 18.781282 10.596802 0.000000 0.000000 0.000000 5.602181 -0.985137 10.163577 -1.939385 0.900808 1.355028 -5.322017 4.306716 7.516873 8.560189 -2.881604 -18.487975 0.000000 0.000000 0.000000 -25.042344 -9.331320 0.342292 -44.952174 -3.562335 -3.414352 5.429614 -31.951694 -0.874072 0.000000 0.000000 0.000000 22.999609 -2.069443 -0.866100 55.074375 0.631415 -5.865613 -2.102324 29.517374 1.157585 0.000000 0.000000 0.000000 
